<mxfile host="app.diagrams.net" modified="2021-04-25T07:20:21.465Z" agent="5.0 (Windows NT 10.0; Win64; x64) AppleWebKit/537.36 (KHTML, like Gecko) Chrome/90.0.4430.85 Safari/537.36" etag="3jaLbto_AzOIbX8D490m" version="14.4.8" type="github">
  <diagram id="-3uysWm1w0xGo6bVAO7v" name="Page-1">
    <mxGraphModel dx="1240" dy="689" grid="1" gridSize="10" guides="1" tooltips="1" connect="1" arrows="1" fold="1" page="1" pageScale="1" pageWidth="850" pageHeight="1100" math="0" shadow="0">
      <root>
        <mxCell id="0" />
        <mxCell id="1" parent="0" />
        <mxCell id="DnYrHzDihU8Tj2HD7h9z-12" style="edgeStyle=orthogonalEdgeStyle;rounded=0;orthogonalLoop=1;jettySize=auto;html=1;exitX=1;exitY=0.5;exitDx=0;exitDy=0;entryX=0;entryY=0.5;entryDx=0;entryDy=0;fillColor=#fa6800;strokeColor=#C73500;" edge="1" parent="1" source="DnYrHzDihU8Tj2HD7h9z-7" target="DnYrHzDihU8Tj2HD7h9z-8">
          <mxGeometry relative="1" as="geometry" />
        </mxCell>
        <mxCell id="DnYrHzDihU8Tj2HD7h9z-7" value="SARS-CoV-2" style="swimlane;fontStyle=0;childLayout=stackLayout;horizontal=1;startSize=26;fillColor=#fa6800;horizontalStack=0;resizeParent=1;resizeParentMax=0;resizeLast=0;collapsible=1;marginBottom=0;strokeColor=#C73500;fontColor=#ffffff;" vertex="1" parent="1">
          <mxGeometry x="270" y="60" width="100" height="106" as="geometry" />
        </mxCell>
        <mxCell id="DnYrHzDihU8Tj2HD7h9z-8" value="SARS-CoV-2" style="swimlane;fontStyle=0;childLayout=stackLayout;horizontal=1;startSize=26;fillColor=#fa6800;horizontalStack=0;resizeParent=1;resizeParentMax=0;resizeLast=0;collapsible=1;marginBottom=0;strokeColor=#C73500;fontColor=#ffffff;" vertex="1" parent="1">
          <mxGeometry x="410" y="60" width="100" height="106" as="geometry" />
        </mxCell>
        <mxCell id="DnYrHzDihU8Tj2HD7h9z-13" style="edgeStyle=orthogonalEdgeStyle;rounded=0;orthogonalLoop=1;jettySize=auto;html=1;exitX=0;exitY=0.5;exitDx=0;exitDy=0;entryX=1;entryY=0.5;entryDx=0;entryDy=0;fillColor=#fa6800;strokeColor=#C73500;" edge="1" parent="1" source="DnYrHzDihU8Tj2HD7h9z-9" target="DnYrHzDihU8Tj2HD7h9z-10">
          <mxGeometry relative="1" as="geometry" />
        </mxCell>
        <mxCell id="DnYrHzDihU8Tj2HD7h9z-9" value="SARS-CoV-2" style="swimlane;fontStyle=0;childLayout=stackLayout;horizontal=1;startSize=26;fillColor=#fa6800;horizontalStack=0;resizeParent=1;resizeParentMax=0;resizeLast=0;collapsible=1;marginBottom=0;strokeColor=#C73500;fontColor=#ffffff;" vertex="1" parent="1">
          <mxGeometry x="830" y="60" width="100" height="106" as="geometry" />
        </mxCell>
        <mxCell id="DnYrHzDihU8Tj2HD7h9z-10" value="SARS-CoV-2" style="swimlane;fontStyle=0;childLayout=stackLayout;horizontal=1;startSize=26;fillColor=#fa6800;horizontalStack=0;resizeParent=1;resizeParentMax=0;resizeLast=0;collapsible=1;marginBottom=0;strokeColor=#C73500;fontColor=#ffffff;" vertex="1" parent="1">
          <mxGeometry x="690" y="60" width="100" height="106" as="geometry" />
        </mxCell>
        <mxCell id="DnYrHzDihU8Tj2HD7h9z-35" style="edgeStyle=orthogonalEdgeStyle;rounded=0;orthogonalLoop=1;jettySize=auto;html=1;exitX=0.5;exitY=1;exitDx=0;exitDy=0;entryX=0.5;entryY=0;entryDx=0;entryDy=0;fillColor=#fa6800;strokeColor=#C73500;" edge="1" parent="1" source="DnYrHzDihU8Tj2HD7h9z-14" target="DnYrHzDihU8Tj2HD7h9z-18">
          <mxGeometry relative="1" as="geometry" />
        </mxCell>
        <mxCell id="DnYrHzDihU8Tj2HD7h9z-14" value="SARS-CoV-2" style="swimlane;fontStyle=0;childLayout=stackLayout;horizontal=1;startSize=26;fillColor=#fa6800;horizontalStack=0;resizeParent=1;resizeParentMax=0;resizeLast=0;collapsible=1;marginBottom=0;strokeColor=#C73500;fontColor=#ffffff;" vertex="1" parent="1">
          <mxGeometry x="505" y="210" width="190" height="90" as="geometry" />
        </mxCell>
        <mxCell id="DnYrHzDihU8Tj2HD7h9z-17" value="Identification&#xa;of Gene Ontology" style="swimlane;fontStyle=0;childLayout=stackLayout;horizontal=1;startSize=50;fillColor=#fa6800;horizontalStack=0;resizeParent=1;resizeParentMax=0;resizeLast=0;collapsible=1;marginBottom=0;strokeColor=#C73500;fontColor=#ffffff;" vertex="1" parent="1">
          <mxGeometry x="130" y="630" width="100" height="106" as="geometry" />
        </mxCell>
        <mxCell id="DnYrHzDihU8Tj2HD7h9z-34" style="edgeStyle=orthogonalEdgeStyle;rounded=0;orthogonalLoop=1;jettySize=auto;html=1;exitX=0.5;exitY=1;exitDx=0;exitDy=0;entryX=0.5;entryY=0;entryDx=0;entryDy=0;fillColor=#fa6800;strokeColor=#C73500;" edge="1" parent="1" source="DnYrHzDihU8Tj2HD7h9z-18" target="DnYrHzDihU8Tj2HD7h9z-19">
          <mxGeometry relative="1" as="geometry" />
        </mxCell>
        <mxCell id="DnYrHzDihU8Tj2HD7h9z-18" value="SARS-CoV-2" style="swimlane;fontStyle=0;childLayout=stackLayout;horizontal=1;startSize=26;fillColor=#fa6800;horizontalStack=0;resizeParent=1;resizeParentMax=0;resizeLast=0;collapsible=1;marginBottom=0;strokeColor=#C73500;fontColor=#ffffff;" vertex="1" parent="1">
          <mxGeometry x="505" y="340" width="190" height="90" as="geometry" />
        </mxCell>
        <mxCell id="DnYrHzDihU8Tj2HD7h9z-19" value="SARS-CoV-2" style="swimlane;fontStyle=0;childLayout=stackLayout;horizontal=1;startSize=26;fillColor=#fa6800;horizontalStack=0;resizeParent=1;resizeParentMax=0;resizeLast=0;collapsible=1;marginBottom=0;strokeColor=#C73500;fontColor=#ffffff;" vertex="1" parent="1">
          <mxGeometry x="505" y="470" width="190" height="90" as="geometry" />
        </mxCell>
        <mxCell id="DnYrHzDihU8Tj2HD7h9z-20" value="Identification&#xa;of Pathway" style="swimlane;fontStyle=0;childLayout=stackLayout;horizontal=1;startSize=50;fillColor=#fa6800;horizontalStack=0;resizeParent=1;resizeParentMax=0;resizeLast=0;collapsible=1;marginBottom=0;strokeColor=#C73500;fontColor=#ffffff;" vertex="1" parent="1">
          <mxGeometry x="270" y="630" width="100" height="106" as="geometry" />
        </mxCell>
        <mxCell id="DnYrHzDihU8Tj2HD7h9z-21" value="Analysis &#xa;of PPIs Network" style="swimlane;fontStyle=0;childLayout=stackLayout;horizontal=1;startSize=50;fillColor=#fa6800;horizontalStack=0;resizeParent=1;resizeParentMax=0;resizeLast=0;collapsible=1;marginBottom=0;strokeColor=#C73500;fontColor=#ffffff;" vertex="1" parent="1">
          <mxGeometry x="410" y="630" width="100" height="106" as="geometry" />
        </mxCell>
        <mxCell id="DnYrHzDihU8Tj2HD7h9z-22" value="Identification&#xa; of Hub genes and&#xa;Module Analysis" style="swimlane;fontStyle=0;childLayout=stackLayout;horizontal=1;startSize=50;fillColor=#fa6800;horizontalStack=0;resizeParent=1;resizeParentMax=0;resizeLast=0;collapsible=1;marginBottom=0;strokeColor=#C73500;fontColor=#ffffff;" vertex="1" parent="1">
          <mxGeometry x="550" y="630" width="100" height="106" as="geometry" />
        </mxCell>
        <mxCell id="DnYrHzDihU8Tj2HD7h9z-23" value="TF-gene&#xa; Interactions &#xa;Analysis" style="swimlane;fontStyle=0;childLayout=stackLayout;horizontal=1;startSize=50;fillColor=#fa6800;horizontalStack=0;resizeParent=1;resizeParentMax=0;resizeLast=0;collapsible=1;marginBottom=0;strokeColor=#C73500;fontColor=#ffffff;" vertex="1" parent="1">
          <mxGeometry x="690" y="630" width="100" height="106" as="geometry" />
        </mxCell>
        <mxCell id="DnYrHzDihU8Tj2HD7h9z-24" value="TF-miRNA &#xa;Coregulatory &#xa;Network" style="swimlane;fontStyle=0;childLayout=stackLayout;horizontal=1;startSize=50;fillColor=#fa6800;horizontalStack=0;resizeParent=1;resizeParentMax=0;resizeLast=0;collapsible=1;marginBottom=0;strokeColor=#C73500;fontColor=#ffffff;" vertex="1" parent="1">
          <mxGeometry x="830" y="630" width="100" height="106" as="geometry" />
        </mxCell>
        <mxCell id="DnYrHzDihU8Tj2HD7h9z-25" value="Identification &#xa;of Candidate &#xa;Drugs" style="swimlane;fontStyle=0;childLayout=stackLayout;horizontal=1;startSize=50;fillColor=#fa6800;horizontalStack=0;resizeParent=1;resizeParentMax=0;resizeLast=0;collapsible=1;marginBottom=0;strokeColor=#C73500;fontColor=#ffffff;" vertex="1" parent="1">
          <mxGeometry x="970" y="630" width="100" height="106" as="geometry" />
        </mxCell>
        <mxCell id="DnYrHzDihU8Tj2HD7h9z-27" value="" style="endArrow=classic;startArrow=classic;html=1;fillColor=#fa6800;strokeColor=#C73500;entryX=0.5;entryY=0;entryDx=0;entryDy=0;exitX=0.5;exitY=0;exitDx=0;exitDy=0;" edge="1" parent="1" source="DnYrHzDihU8Tj2HD7h9z-17" target="DnYrHzDihU8Tj2HD7h9z-25">
          <mxGeometry width="50" height="50" relative="1" as="geometry">
            <mxPoint x="640" y="420" as="sourcePoint" />
            <mxPoint x="690" y="370" as="targetPoint" />
            <Array as="points">
              <mxPoint x="180" y="600" />
              <mxPoint x="1020" y="600" />
            </Array>
          </mxGeometry>
        </mxCell>
        <mxCell id="DnYrHzDihU8Tj2HD7h9z-28" value="" style="endArrow=none;html=1;entryX=0.5;entryY=1;entryDx=0;entryDy=0;fillColor=#fa6800;strokeColor=#C73500;" edge="1" parent="1" target="DnYrHzDihU8Tj2HD7h9z-19">
          <mxGeometry width="50" height="50" relative="1" as="geometry">
            <mxPoint x="600" y="600" as="sourcePoint" />
            <mxPoint x="690" y="580" as="targetPoint" />
          </mxGeometry>
        </mxCell>
        <mxCell id="DnYrHzDihU8Tj2HD7h9z-29" value="" style="endArrow=classic;html=1;entryX=0.5;entryY=0;entryDx=0;entryDy=0;fillColor=#fa6800;strokeColor=#C73500;" edge="1" parent="1" target="DnYrHzDihU8Tj2HD7h9z-24">
          <mxGeometry width="50" height="50" relative="1" as="geometry">
            <mxPoint x="880" y="600" as="sourcePoint" />
            <mxPoint x="690" y="580" as="targetPoint" />
          </mxGeometry>
        </mxCell>
        <mxCell id="DnYrHzDihU8Tj2HD7h9z-30" value="" style="endArrow=classic;html=1;entryX=0.5;entryY=0;entryDx=0;entryDy=0;fillColor=#fa6800;strokeColor=#C73500;" edge="1" parent="1" target="DnYrHzDihU8Tj2HD7h9z-23">
          <mxGeometry width="50" height="50" relative="1" as="geometry">
            <mxPoint x="740" y="600" as="sourcePoint" />
            <mxPoint x="890" y="640" as="targetPoint" />
          </mxGeometry>
        </mxCell>
        <mxCell id="DnYrHzDihU8Tj2HD7h9z-31" value="" style="endArrow=classic;html=1;entryX=0.5;entryY=0;entryDx=0;entryDy=0;fillColor=#fa6800;strokeColor=#C73500;" edge="1" parent="1" target="DnYrHzDihU8Tj2HD7h9z-22">
          <mxGeometry width="50" height="50" relative="1" as="geometry">
            <mxPoint x="600" y="600" as="sourcePoint" />
            <mxPoint x="750" y="640" as="targetPoint" />
          </mxGeometry>
        </mxCell>
        <mxCell id="DnYrHzDihU8Tj2HD7h9z-32" value="" style="endArrow=classic;html=1;entryX=0.5;entryY=0;entryDx=0;entryDy=0;fillColor=#fa6800;strokeColor=#C73500;" edge="1" parent="1" target="DnYrHzDihU8Tj2HD7h9z-21">
          <mxGeometry width="50" height="50" relative="1" as="geometry">
            <mxPoint x="460" y="600" as="sourcePoint" />
            <mxPoint x="610" y="640" as="targetPoint" />
          </mxGeometry>
        </mxCell>
        <mxCell id="DnYrHzDihU8Tj2HD7h9z-33" value="" style="endArrow=classic;html=1;entryX=0.5;entryY=0;entryDx=0;entryDy=0;fillColor=#fa6800;strokeColor=#C73500;" edge="1" parent="1" target="DnYrHzDihU8Tj2HD7h9z-20">
          <mxGeometry width="50" height="50" relative="1" as="geometry">
            <mxPoint x="320" y="600" as="sourcePoint" />
            <mxPoint x="470" y="640" as="targetPoint" />
          </mxGeometry>
        </mxCell>
        <mxCell id="DnYrHzDihU8Tj2HD7h9z-37" value="" style="ellipse;whiteSpace=wrap;html=1;strokeColor=#FF8000;strokeWidth=3;" vertex="1" parent="1">
          <mxGeometry x="555" y="90" width="90" height="56" as="geometry" />
        </mxCell>
      </root>
    </mxGraphModel>
  </diagram>
</mxfile>
